PathFileType	4	(X/Y/Z)	C:/Users/beibeiliu/ov580/test_trc/User3\out9_training_dense_left.trc
DataRate	CameraRate	NumFrames	NumMarkers	Units	OrigDataRate	OrigDataStartFrame	OrigNumFrames
120	120	10	19	mm	120	313	500
Frame#	Time	ThumbCMC			ThumbMCP			ThumbIP			ThumbTip			IndexMCP			IndexPIP			IndexTip			MiddleMCP			MiddlePIP			MiddleTip			RingMCP			RingPIP			RingTip			PinkyMCP			PinkyPIP			PinkyTip			BackHand1			BackHand2			BackHand3	
		X0	Y0	Z0	X1	Y1	Z1	X2	Y2	Z2	X3	Y3	Z3	X4	Y4	Z4	X5	Y5	Z5	X6	Y6	Z6	X7	Y7	Z7	X8	Y8	Z8	X9	Y9	Z9	X10	Y10	Z10	X11	Y11	Z11	X12	Y12	Z12	X13	Y13	Z13	X14	Y14	Z14	X15	Y15	Z15	X16	Y16	Z16	X17	Y17	Z17	X18	Y18	Z18	
312	2.6	-98.2275	64.5751	75.9182	-76.3145	40.9191	62.4359	-67.4982	14.8826	50.2946	-83.6776	-10.3882	47.7648	-91.3722	29.3711	15.5768	-69.7911	15.1851	35.8142	-86.6043	31.3062	59.6219	-103.497	9.94557	23.1331	-78.7549	4.32003	47.3926	-102.552	27.9666	69.6093	-112.132	-2.11993	33.3854	-91.7939	-7.77718	54.8146	-103.121	15.6602	77.0808	-133.475	-4.36797	31.3869	-111.064	-19.8379	29.9708	-94.6891	-27.2002	51.3286	-154.295	33.4046	53.1205	-162.628	45.8802	82.9564	-136.645	65.3276	63.2047	
313	2.60833	-104.203	73.36	77.1124	-74.2723	57.482	67.0278	-55.044	28.0904	54.6206	-60.5309	1.72073	57.4195	-83.5244	34.7151	19.9929	-57.6022	26.8936	39.1064	-77.165	42.8486	62.9414	-84.2033	16.0058	27.8877	-64.4233	12.8442	55.0377	-92.8002	34.9896	74.4274	-90.2377	-0.247031	40.8639	-74.4791	0.277501	66.1966	-92.7183	23.7193	83.3308	-111.76	-9.68302	44.33	-83.3509	-18.5215	42.3094	-68.3125	-11.48	66.7582	-144.268	23.5365	52.3445	-160.339	34.5391	81.096	-138.913	58.4668	58.0871	
314	2.61667	-114.919	77.8271	74.8904	-78.9016	71.6014	63.5769	-54.5413	52.904	57.5597	-55.2294	25.0985	64.2022	-79.6218	41.6824	22.7705	-51.8311	45.6805	41.4734	-72.5995	59.638	65.0593	-75.9206	23.2337	33.5875	-53.7736	33.1611	56.421	-84.8424	46.2778	77.5613	-78.8567	6.60572	46.1995	-58.7525	20.0046	64.9457	-81.591	34.6962	85.0877	-93.3147	-4.42249	47.0784	-68.0252	-9.33051	45.2783	-46.0329	1.58097	64.6107	-132.863	14.2843	57.572	-152.923	24.3864	84.3319	-139.759	48.4588	58.2252	
315	2.625	-129.734	81.2812	74.2394	-101.475	84.2867	53.6529	-77.7639	65.3323	47.653	-67.7945	36.836	56.7938	-75.038	56.6332	25.379	-52.6554	70.497	43.1605	-70.1072	79.9891	70.0331	-68.47	40.7335	33.8349	-50.4595	55.8359	57.228	-79.1943	58.7823	83.1375	-70.9037	23.7803	45.6549	-54.5659	38.586	67.9059	-80.3358	45.6115	86.2347	-83.7142	5.71602	49.0816	-57.7054	7.88065	40.8397	-32.4615	19.0913	50.4821	-128.152	18.939	59.8469	-146.634	18.9872	84.5644	-142.947	46.5003	60.2924	
316	2.63333	-141.599	79.6394	73.7843	-120.195	89.1639	50.2734	-89.0793	80.233	38.6237	-76.366	62.6604	51.2738	-90.4876	68.6953	23.119	-64.6745	84.3911	39.4533	-84.2543	92.4626	70.5993	-76.9191	54.9611	30.4641	-58.0132	70.3704	52.7091	-86.2971	70.7302	82.3677	-69.2115	38.3223	44.4535	-57.1094	55.6926	64.6385	-83.9545	56.817	85.0617	-76.4811	15.0694	46.6313	-56.1625	21.148	38.6867	-35.8845	32.5305	33.7601	-126.804	19.878	61.4177	-146.139	18.7804	84.875	-148.473	46.9191	58.6224	
317	2.64167	-153.142	80.9484	71.2401	-133.262	98.9707	54.7596	-106.28	107.863	36.97	-79.1345	95.2112	37.9452	-98.0301	75.3285	20.8389	-81.1759	95.4062	38.1733	-100.229	87.7321	68.7719	-84.6157	58.9365	28.8475	-73.5728	87.3149	48.0302	-95.1149	78.0885	76.9284	-74.6348	49.0893	42.5378	-66.4566	71.3515	58.6758	-92.7209	67.9707	81.8424	-78.371	26.3729	48.2799	-58.9909	35.7057	36.0298	-39.4234	45.2446	24.0138	-125.689	17.5616	62.6352	-142.27	17.531	87.2817	-150.723	42.8796	60.8649	
318	2.65	-161.66	75.4079	68.9848	-148.01	95.7222	51.1945	-127.162	111.133	29.6563	-103.239	111.818	24.7212	-106.924	78.833	17.1568	-97.373	104.727	33.2927	-111.858	94.6077	62.5775	-90.9754	71.032	23.8919	-80.8198	91.3822	44.4227	-108.448	79.9374	70.8729	-83.8573	56.102	38.3213	-73.8808	82.1865	56.102	-100.805	75.7965	79.8457	-76.9432	34.894	48.3191	-62.9604	47.5742	34.7641	-45.7889	55.2873	25.0935	-122.866	19.6252	63.9765	-138.695	16.9894	89.081	-154.358	36.566	61.6289	
319	2.65833	-166.161	68.7646	65.445	-161.198	88.3228	46.227	-148.377	105.114	20.7527	-130.107	112.28	10.3202	-115.311	78.898	13.5392	-104.232	102.619	29.2057	-119.616	91.2953	58.8665	-92.1893	70.3627	22.8729	-92.2455	96.814	43.0587	-114.935	79.0851	67.4809	-84.7284	61.3918	36.2224	-79.7947	85.5892	51.3582	-103.158	80.6846	77.4141	-79.8453	41.2347	46.0317	-61.1391	50.7303	36.3228	-45.9437	62.7887	21.2495	-117.494	21.1907	60.0339	-136.278	16.082	88.2906	-151.6	31.1415	61.6128	
320	2.66667	-167.906	61.4756	70.2041	-165.112	78.9863	42.0001	-161.162	93.8016	17.1531	-153.97	105.229	-2.26628	-118.203	72.3755	15.295	-111.728	103.471	29.3483	-129.988	88.7584	57.6732	-98.352	67.3744	23.3096	-97.7005	96.825	41.6856	-115.976	73.7344	66.9184	-85.7407	63.7958	35.2729	-83.4576	88.0295	53.8747	-109.295	77.791	77.6647	-78.2219	41.0071	45.8987	-66.2748	54.403	31.4751	-47.8263	67.7624	18.1593	-115.738	17.3154	61.3866	-133.402	12.937	88.4971	-153.063	30.0293	64.3286	
321	2.675	-168.613	56.9393	66.7741	-174.206	74.0603	44.5289	-174.586	85.2202	18.9888	-174.457	96.8095	-1.70072	-119.657	73.9279	14.7925	-117.675	100.412	28.0657	-132.495	83.4392	58.0391	-103.61	69.7945	19.4207	-99.9473	93.3754	37.1016	-121.896	72.573	64.953	-92.0653	59.8477	32.8504	-90.3587	88.1908	49.8952	-112.006	78.9503	74.1095	-83.8343	40.9747	44.5246	-66.3303	54.5967	30.0174	-53.1922	68.1001	15.1775	-119.107	17.1426	62.0515	-136.058	11.2672	88.5521	-153.794	25.5269	63.0032	
